<svg xmlns="http://www.w3.org/2000/svg" viewBox="42.69 175.76 143.8 32.38">
  <g id="SvgjsG2382" featurekey="PG4fjM-0" transform="matrix(2, 0, 0, 2, 42.690865, 154.535934)" fill="#3b3c98">
    <g transform="translate(-270 -140)" id="g11">
      <g id="g9">
        <path d="M279,161c-0.736,0-1.375,0.405-1.722,1c-0.172,0.295-0.278,0.635-0.278,1c0,1.102,0.897,2,2,2c1.103,0,2-0.898,2-2    c0-0.365-0.105-0.705-0.278-1C280.375,161.405,279.737,161,279,161z" id="path3"/>
        <path d="M293,161c-0.736,0-1.375,0.405-1.722,1c-0.172,0.295-0.278,0.635-0.278,1c0,1.102,0.897,2,2,2c1.103,0,2-0.898,2-2    c0-0.365-0.105-0.705-0.278-1C294.375,161.405,293.737,161,293,161z" id="path5"/>
        <path d="M299,159v-1l-6-1.715L286,152h-11v1h6v1h-11v1h12v1h-10v1h5v1h-2v1h-4v1h5v1h-1v1h-3v1h4c0-0.352,0.072-0.686,0.184-1    c0.414-1.162,1.512-2,2.816-2c1.305,0,2.402,0.838,2.816,2c0.111,0.314,0.184,0.648,0.184,1h8c0-0.352,0.072-0.686,0.184-1    c0.414-1.162,1.512-2,2.816-2c1.305,0,2.402,0.838,2.816,2c0.111,0.314,0.184,0.648,0.184,1h3v-1h1v-3H299z" id="path7"/>
      </g>
    </g>
  </g>
  <g id="SvgjsG2383" featurekey="jxYttZ-0" transform="matrix(2.355529, 0, 0, 2.355529, 121.034065, 162.895187)" fill="#111111">
    <text style="fill: rgb(51, 51, 51); font-family: Arial, sans-serif; font-size: 4.2px; font-weight: 700; white-space: pre;" transform="matrix(2.038948, 0, 0, 2.895988, 3.51706, -24.376429)" y="14.117" x="-4.431">CarRent</text>
  </g>
</svg>